<?xml version="1.0" standalone="no"?>
<!DOCTYPE svg PUBLIC "-//W3C//DTD SVG 20010904//EN"
 "http://www.w3.org/TR/2001/REC-SVG-20010904/DTD/svg10.dtd">
<svg version="1.0" xmlns="http://www.w3.org/2000/svg"
 width="700.000000pt" height="700.000000pt" viewBox="0 0 700.000000 700.000000"
 preserveAspectRatio="xMidYMid meet">
<metadata>
Created by potrace 1.11, written by Peter Selinger 2001-2013
</metadata>
<g transform="translate(0.000000,700.000000) scale(0.100000,-0.100000)"
fill="#000000" stroke="none">
<path d="M440 6020 l0 -110 -220 0 -220 0 0 -2520 0 -2520 1420 0 1420 0 0
-105 0 -105 660 0 660 0 0 105 0 105 1420 0 1420 0 0 2520 0 2520 -220 0 -220
0 0 110 0 110 -3060 0 -3060 0 0 -110z m5900 -2300 l0 -2190 -1230 0 -1230 0
-190 -95 -190 -95 -190 95 -190 95 -1230 0 -1230 0 0 2190 0 2190 2840 0 2840
0 0 -2190z"/>
<path d="M1312 4483 l3 -108 655 0 655 0 3 108 3 107 -661 0 -661 0 3 -107z"/>
<path d="M4372 4483 l3 -108 655 0 655 0 3 108 3 107 -661 0 -661 0 3 -107z"/>
<path d="M1317 4153 c-4 -3 -7 -53 -7 -110 l0 -103 660 0 661 0 -3 108 -3 107
-651 3 c-358 1 -654 -1 -657 -5z"/>
<path d="M4377 4153 c-4 -3 -7 -53 -7 -110 l0 -103 660 0 660 0 0 110 0 110
-653 0 c-360 0 -657 -3 -660 -7z"/>
<path d="M1310 3610 l0 -110 660 0 661 0 -3 108 -3 107 -657 3 -658 2 0 -110z"/>
<path d="M4370 3610 l0 -110 660 0 660 0 0 110 0 110 -660 0 -660 0 0 -110z"/>
<path d="M1310 3170 l0 -110 658 2 657 3 3 108 3 107 -661 0 -660 0 0 -110z"/>
<path d="M4372 3173 l3 -108 658 -3 657 -2 0 110 0 110 -660 0 -661 0 3 -107z"/>
</g>
</svg>
